<svg version="1.1" id="Layer_1" xmlns:x="ns_extend;" xmlns:i="ns_ai;" xmlns:graph="ns_graphs;" xmlns="http://www.w3.org/2000/svg" xmlns:xlink="http://www.w3.org/1999/xlink" x="0px" y="0px" viewBox="0 0 509.7 130.5" style="enable-background:new 0 0 509.7 130.5;" xml:space="preserve">
 <style type="text/css">
  .st0{fill:#E60F05;}
	.st1{fill:#FFFFFF;}
 </style>
 <metadata>
  <sfw xmlns="ns_sfw;">
   <slices>
   </slices>
   <sliceSourceBounds bottomLeftOrigin="true" height="130.5" width="509.7" x="1.5" y="2.1">
   </sliceSourceBounds>
  </sfw>
 </metadata>
 <g>
  <path class="st0" d="M8.4,0h113.7c4.6,0,8.4,4.1,8.4,9.1v112.3c0,5-3.7,9.1-8.4,9.1H8.4c-4.6,0-8.4-4.1-8.4-9.1V9.1
		C0,4.1,3.8,0,8.4,0z">
  </path>
  <g>
   <path class="st1" d="M92.1,83.4c-1.1-1.1-2.4-1.8-3.9-2.1s-3-0.1-4.4,0.4c-1.4,0.6-2.6,1.5-3.4,2.8c-0.8,1.2-1.3,2.7-1.3,4.2
			c0,1,0.2,2,0.6,2.9s0.9,1.8,1.6,2.5s1.5,1.3,2.5,1.6c0.9,0.4,1.9,0.6,2.9,0.6c1.5,0,3-0.4,4.2-1.3c1.2-0.8,2.2-2,2.8-3.4
			s0.7-2.9,0.4-4.4C93.9,85.8,93.2,84.5,92.1,83.4z M86.8,92.5c-2,0-3.7-1.7-3.7-3.7s1.7-3.7,3.7-3.7s3.8,1.7,3.8,3.7
			S88.8,92.5,86.8,92.5z">
   </path>
   <path class="st1" d="M105.5,79h-2.2c-2,0-3-0.9-3.9-1.9c-1.6-1.8-3.5-3.2-5.7-4.2s-4.5-1.4-6.9-1.4H25.6c-0.2,0-0.4,0.1-0.6,0.2
			s-0.3,0.2-0.5,0.3c-0.1,0.1-0.2,0.3-0.3,0.5S24,72.9,24,73.1v2.8v7.3c0,1.1-0.9,0.7-0.9,2.5v1c0,1.2,0.7,1.9,1.8,1.9h2
			c0.3,0,1-0.2,1-1c0-6.2,5.1-11.3,11.1-11.3s11.3,4.8,11.3,11.3c0,0.6,0.4,0.9,0.9,0.9h23.3c0.6,0,1-0.4,1-1
			c0-5.9,4.7-11.3,11.3-11.3C93,76.2,98,81.3,98,87.5c0,0.4,0.2,1,1,1h6.6c1,0,1.9-1,1.9-1.9V81C107.3,79.7,106.7,79,105.5,79z">
   </path>
   <path class="st1" d="M44.4,83.4c-1.1-1.1-2.4-1.8-3.9-2.1s-3-0.1-4.4,0.4c-1.4,0.6-2.6,1.5-3.4,2.8c-0.8,1.2-1.3,2.7-1.3,4.2
			c0,1,0.2,2,0.6,2.9c0.4,0.9,0.9,1.8,1.6,2.5s1.5,1.3,2.5,1.6c0.9,0.4,1.9,0.6,2.9,0.6c1.5,0,3-0.4,4.2-1.3c1.2-0.8,2.2-2,2.8-3.4
			s0.7-2.9,0.4-4.4C46.2,85.8,45.5,84.5,44.4,83.4z M39.1,92.5c-2,0-3.7-1.7-3.7-3.7s1.7-3.7,3.7-3.7s3.8,1.7,3.8,3.7
			S41.1,92.5,39.1,92.5z">
   </path>
   <path class="st1" d="M24.4,65.8c0.1,0.2,0.3,0.3,0.5,0.4s0.4,0.1,0.6,0.1h61.2c5.3-0.1,10.5,2,14.3,5.6c0.6,0.6,1.4,1.9,2.6,1.9
			h1.2c0.6,0,0.8-0.3,0.8-1v-8.7c0-12.2-7.4-22-20-26.8c-13.1-5.2-44.3-3.2-56.9,0.1c-2,0.5-4.7,1.5-4.7,5.3v20l0.1,1.9
			C24,65.1,24.2,65.5,24.4,65.8z M75.2,44.8c0-0.6,0.2-1,1-1h3.9c9.4,0,15.8,6.4,19.3,15.9c0.2,0.5,0.1,1.3-0.9,1.3H76.2
			c-0.6,0-1-0.6-1-1V44.8z M52.4,44.8c0-0.1,0-0.3,0.1-0.4c0-0.1,0.1-0.2,0.2-0.3c0.1-0.1,0.2-0.2,0.3-0.2s0.2-0.1,0.4-0.1h16.5
			c0.6,0,1,0.4,1,1v15.1c0,0.5-0.4,1-1,1H53.3c-0.5,0-1-0.2-1-1L52.4,44.8L52.4,44.8z M29.3,44.8c0-0.2,0-1,0.9-1h16.9
			c0.6,0,1,0.4,1,0.9V60c0,0.3-0.2,0.9-1,0.9H30.2c-0.7,0-0.9-0.6-0.9-1L29.3,44.8z">
   </path>
  </g>
  <path class="st1" d="M164.7,35.4c-0.1,0-0.2,0-0.3,0.1c-0.1,0-0.2,0.1-0.2,0.2c-0.1,0.1-0.1,0.2-0.2,0.2c0,0.1-0.1,0.2-0.1,0.3
		v44.6c0,5.4,1.5,9.3,4.6,11.7c3.3,2.7,8.6,3.3,14.7,1.9c0.2,0,0.3-0.1,0.4-0.3c0.1-0.1,0.2-0.3,0.2-0.5l-0.1-7.6
		c0-0.1,0-0.2-0.1-0.3c0-0.1-0.1-0.2-0.2-0.3s-0.2-0.1-0.3-0.1s-0.2,0-0.3,0c-2.4,0.5-4.2,0.2-5.5-0.8c-1.4-1.1-2-3.1-2-6V36.2
		c0-0.2-0.1-0.4-0.2-0.5s-0.3-0.2-0.5-0.2L164.7,35.4L164.7,35.4z">
  </path>
  <path class="st1" d="M207.8,48.2c-6.6,0-12,2.3-16.1,6.8s-6.2,10.1-6.2,16.7c0,6.8,2.1,12.4,6.2,16.9c4.1,4.4,9.6,6.7,16.3,6.7
		c5.1,0,9.6-1.4,13.4-4.2c3.7-2.7,6.5-6.6,7.8-11.1c0-0.1,0-0.2,0-0.3s-0.1-0.2-0.1-0.3c-0.1-0.1-0.1-0.2-0.2-0.2s-0.2-0.1-0.3-0.1
		h-10.1c-0.1,0-0.3,0-0.4,0.1s-0.2,0.2-0.2,0.3c-0.7,1.8-2,3.3-3.7,4.2c-1.8,1.1-3.8,1.6-5.9,1.6c-3.3,0-5.9-0.9-7.9-2.9
		c-1.9-1.9-3.1-4.3-3.4-6.9v-0.2h32.5c0.2,0,0.3-0.1,0.5-0.2c0.1-0.1,0.2-0.3,0.2-0.5l0.1-3.1c0-6.6-2.1-12.2-6.1-16.6
		C219.7,50.4,214.4,48.2,207.8,48.2L207.8,48.2z M218.5,66.5h-21.6l0.1-0.2c0.5-2.3,1.7-4.4,3.5-6c2-1.8,4.4-2.6,7.4-2.6
		s5.5,0.9,7.4,2.6c1.7,1.6,2.9,3.7,3.3,6L218.5,66.5z">
  </path>
  <path class="st1" d="M441.2,84.3c-6.9,0-12.4-5.6-12.4-12.4s5.6-12.4,12.4-12.4s12.4,5.6,12.4,12.4S448,84.3,441.2,84.3z
		 M441.2,48.5c-9.5,0-17.8,5.6-21.6,14.4c-1.8,4.2-2.2,8.9-1.3,13.5c0.9,4.5,3.1,8.6,6.4,11.9s7.4,5.4,11.9,6.4
		c4.5,0.9,9.2,0.4,13.5-1.3c4.3-1.8,7.9-4.8,10.5-8.6c2.5-3.9,3.9-8.3,3.9-12.9C464.4,59.1,454.3,48.5,441.2,48.5z M505.1,53.4
		c-2.9-3.3-7.1-4.9-12.4-4.9c-3.3,0-6.3,0.7-8.7,2c-1.3,0.8-2.5,1.8-3.6,2.9l-0.3,0.3v-3.6c0-0.1-0.1-0.3-0.2-0.4s-0.3-0.2-0.5-0.2
		h-9.2c-0.1,0-0.3,0.1-0.4,0.2s-0.2,0.3-0.2,0.4v43.3c0,0.1,0,0.2,0.1,0.3c0,0.1,0.1,0.2,0.2,0.2c0.1,0.1,0.3,0.2,0.4,0.2h10
		c0.1,0,0.4-0.1,0.4-0.2c0.2-0.1,0.2-0.3,0.2-0.5V68.3c0-3,0.9-5.6,2.5-7.3c1.7-1.8,4-2.7,7-2.7c2.7,0,4.7,0.8,6,2.4
		c1.3,1.6,2,3.9,2,6.8v25.9c0,0.2,0,0.4,0.1,0.5c0.2,0.1,0.4,0.2,0.6,0.2h9.8c0.2,0,0.4-0.1,0.5-0.2l0.2-0.2c0-0.1,0.1-0.2,0.1-0.3
		V66.2C509.5,60.9,508,56.6,505.1,53.4z M401.9,71c0,7.1-4.6,12.4-11.4,12.4c-6.6,0-11.4-5.1-11.4-12.4c0-6.9,4.1-12.4,11.4-12.4
		C397.5,58.7,401.9,63.9,401.9,71z M412,49.5h-9.2c-0.1,0-0.2,0-0.3,0.1c-0.1,0-0.2,0.1-0.2,0.2c-0.1,0.1-0.2,0.3-0.2,0.4v4.1
		l-0.3-0.3c-3.1-3.6-7.6-5.4-13.4-5.4c-12.6,0-20.6,9.8-20.6,22.5c0,6.3,1.9,11.7,5.6,15.9c3.7,4.3,8.8,6.5,15,6.5
		c5.4,0,9.7-1.7,12.7-5l0.3-0.4v4.7c0,5.9-4.8,10.5-10.3,10.5c-5.6,0-8.3-3.3-9.6-5.7c-0.3-0.5-0.4-0.6-0.7-0.5
		c-1,0.5-8.6,4.5-9,4.7c-0.2,0.1-0.2,0.4-0.1,0.6c3.1,6.9,10,11.3,19.5,11.3c11.9,0,21.5-8.4,21.5-22.3V50.1c0-0.1,0-0.3-0.2-0.4
		S412.2,49.5,412,49.5L412,49.5z M351.7,71.8c0,7.6-4.2,13.2-11.5,13.2s-11.5-5.9-11.5-13.2c0-7.1,4.1-13.1,11.5-13.1
		C347.3,58.7,351.7,64,351.7,71.8z M361.9,49.6h-9.2c-0.1,0-0.3,0.1-0.5,0.2c-0.1,0.1-0.1,0.3-0.1,0.4v4.1l-0.4-0.3
		c-3-3.6-7.6-5.4-13.6-5.4c-12.9,0-20.5,10-20.5,23.2s7.6,23.3,20.5,23.3c5.9,0,10.6-1.8,13.6-5.4l0.4-0.4v4.1
		c0,0.2,0.1,0.3,0.1,0.5c0.2,0.1,0.4,0.2,0.5,0.2h9.2c0.2,0,0.4-0.1,0.4-0.2c0.2-0.1,0.2-0.3,0.2-0.5V50.2c0-0.1,0-0.3-0.2-0.4
		C362.2,49.8,362.1,49.6,361.9,49.6z M318,50.1c0-0.1-0.1-0.1-0.1-0.3c-0.1-0.1-0.2-0.2-0.3-0.2c-0.1-0.1-0.2-0.1-0.3-0.1h-10.1
		c-0.1,0-0.2,0-0.3,0.1c-0.2,0.1-0.2,0.2-0.3,0.4l-8.9,28.5l-9-28.4c-0.1-0.2-0.1-0.3-0.3-0.4c-0.1,0-0.2-0.1-0.4-0.1h-9.5
		c-0.2,0-0.3,0.1-0.4,0.1c-0.1,0.1-0.2,0.2-0.2,0.4l-9.3,28.8L259.5,50c0-0.2-0.1-0.3-0.2-0.4c-0.1,0-0.3-0.1-0.4-0.1h-10.3
		c-0.1,0-0.2,0-0.4,0.1c-0.1,0-0.1,0.1-0.1,0.2c-0.1,0.1-0.1,0.2-0.1,0.3v0.4l15.1,43.2c0,0.1,0.1,0.2,0.2,0.3
		c0.2,0.1,0.3,0.1,0.4,0.1h9.2h0.2c0.1,0,0.1-0.1,0.2-0.1s0.1-0.1,0.1-0.1s0.1-0.1,0.1-0.2l9.4-28.2l9.3,28.1c0,0.1,0.1,0.3,0.2,0.4
		c0.1,0,0.3,0.1,0.4,0.1h9.3c0.2,0,0.4-0.1,0.4-0.1c0.1-0.1,0.2-0.2,0.3-0.4L318,50.5L318,50.1z">
  </path>
 </g>
</svg>